<?xml version="1.0" encoding="UTF-8"?>
<svg width="22px" height="17px" viewBox="0 0 22 17" version="1.1" xmlns="http://www.w3.org/2000/svg" xmlns:xlink="http://www.w3.org/1999/xlink">
    <!-- Generator: Sketch 50.2 (55047) - http://www.bohemiancoding.com/sketch -->
    <title>hamburger_icon</title>
    <desc>Created with Sketch.</desc>
    <defs></defs>
    <g id="Page-1" stroke="none" stroke-width="1" fill="none" fill-rule="evenodd">
        <g id="Landing-Screen" transform="translate(-16.000000, -95.000000)">
            <g id="hamburger_icon" transform="translate(16.000000, 92.000000)">
                <rect id="Rectangle" x="0" y="0" width="22" height="22"></rect>
                <path d="M21.5111111,12.4265979 L0.488888889,12.4265979 C0.219608889,12.4265979 0,12.0103516 0,11.5 C0,10.9896484 0.219618667,10.5734021 0.488888889,10.5734021 L21.5111111,10.5734021 C21.7803911,10.5734021 22,10.9896484 22,11.5 C22,12.0103516 21.7803813,12.4265979 21.5111111,12.4265979 Z M22,3.92659789 C22,3.41622777 21.7803813,3 21.5111111,3 L0.488888889,3 C0.219608889,3 0,3.4162463 0,3.92659789 C0,4.43694947 0.219618667,4.85319578 0.488888889,4.85319578 L21.5111111,4.85319578 C21.7803911,4.85319578 22,4.43694947 22,3.92659789 Z M22,19.0734021 C22,18.563032 21.7803813,18.1468042 21.5111111,18.1468042 L0.488888889,18.1468042 C0.219608889,18.1468042 0,18.5630505 0,19.0734021 C0,19.5837537 0.219618667,20 0.488888889,20 L21.5111111,20 C21.7803911,20 22,19.5837537 22,19.0734021 Z" id="Shape" fill="#FFFFFF" fill-rule="nonzero"></path>
            </g>
        </g>
    </g>
</svg>