<svg id="Group_5857" data-name="Group 5857" xmlns="http://www.w3.org/2000/svg" viewBox="76 1300 24 24">
  <defs>
    <style>
      .cls-1, .cls-2 {
        fill: none;
      }

      .cls-2 {
        stroke: #3d7edb;
        stroke-miterlimit: 10;
        stroke-width: 1.2px;
      }
    </style>
  </defs>
  <rect id="Rectangle_2418" data-name="Rectangle 2418" class="cls-1" width="24" height="24" transform="translate(76 1300)"/>
  <g id="Group_5855" data-name="Group 5855" transform="translate(-387 370)">
    <path id="Path_6881" data-name="Path 6881" class="cls-2" d="M17.912,1.487,17.327,1H12.019a1.478,1.478,0,0,0-1.12.341l-9.4,9.35a1.5,1.5,0,0,0,0,2.191L8.22,19.6a1.559,1.559,0,0,0,2.24,0l9.448-9.4a1.625,1.625,0,0,0,.438-1.12V3.727l-.73-.633" transform="translate(462.975 931)"/>
    <line id="Line_2618" data-name="Line 2618" class="cls-2" x2="1.948" y2="1.948" transform="translate(479.426 933.948)"/>
    <path id="Path_6882" data-name="Path 6882" class="cls-2" d="M34.2,4.7a3.057,3.057,0,0,1,5.844,1.266A3.14,3.14,0,0,1,38.388,8.7a2.882,2.882,0,0,1-1.412.341" transform="translate(445.956 930.025)"/>
    <path id="Path_6883" data-name="Path 6883" class="cls-2" d="M16.161,16.435h-.487a.977.977,0,0,1-.974-.974v-.487A.977.977,0,0,1,15.674,14h.487a.977.977,0,0,1,.974.974v.487A.977.977,0,0,1,16.161,16.435Z" transform="translate(455.959 924.331)"/>
    <path id="Path_6884" data-name="Path 6884" class="cls-2" d="M25.161,23.435h-.487a.977.977,0,0,1-.974-.974v-.487A.977.977,0,0,1,24.674,21h.487a.977.977,0,0,1,.974.974v.487A.977.977,0,0,1,25.161,23.435Z" transform="translate(451.342 920.74)"/>
    <line id="Line_2619" data-name="Line 2619" class="cls-2" y1="6.818" x2="3.896" transform="translate(472.12 937.844)"/>
  </g>
</svg>
