<svg xmlns="http://www.w3.org/2000/svg" width="25" height="22" viewBox="0 0 25 22">
    <g fill="#FFF" fill-rule="nonzero" stroke="#FFF">
        <path d="M23.755 8.941L12.853 1.113a.607.607 0 0 0-.706 0L1.245 8.941a.579.579 0 0 0-.13.82.605.605 0 0 0 .836.126L12.5 2.312l10.55 7.575a.603.603 0 0 0 .834-.127.579.579 0 0 0-.129-.819z"/>
        <path d="M20.433 10a.574.574 0 0 0-.566.581v9.256h-4.534v-5.052c0-1.604-1.27-2.908-2.833-2.908-1.562 0-2.833 1.305-2.833 2.908v5.052H5.133v-9.255A.574.574 0 0 0 4.567 10a.574.574 0 0 0-.567.582v9.837c0 .32.254.581.567.581h5.666a.573.573 0 0 0 .567-.581v-5.634c0-.962.763-1.745 1.7-1.745.937 0 1.7.783 1.7 1.745v5.634l.002.044c.023.3.267.537.565.537h5.666c.313 0 .567-.26.567-.581v-9.837a.574.574 0 0 0-.567-.582z"/>
    </g>
</svg>
