<svg xmlns="http://www.w3.org/2000/svg" xmlns:xlink="http://www.w3.org/1999/xlink" width="54" height="48" viewBox="0 0 54 48">
    <defs>
        <path id="a" d="M.95.25h38.29V27.4H.95z"/>
    </defs>
    <g fill="none" fill-rule="evenodd">
        <path fill="#FFF" d="M0 34.156v3.985h3.864v9.592H9.4v-9.592h3.75v-3.985zM26.237 34.156v3.985H30.1v9.592h5.536v-9.592h3.75v-3.985zM16.865 34.172L11.894 47.75h5.095l2.737-8.21 2.749 8.21h5.333l-5.283-13.58zM43.088 34.17l-4.97 13.575h5.094l2.8-8.205 2.687 8.205h5.332l-5.344-13.574zM20.368 26.564c-8.013-1.828-13.8-6.903-13.8-12.849a9.2 9.2 0 0 1 .265-2.184c3.904-1.061 14.15-2.637 16.025-1.395 1.23.725-1.167 10.478-2.49 16.428M47.027 11.528c.175.712.267 1.443.267 2.187 0 5.959-5.812 11.042-13.85 12.86-1.324-5.951-3.72-15.715-2.489-16.44 1.872-1.24 12.161.332 16.072 1.393"/>
        <g transform="translate(6.837 -.11)">
            <mask id="b" fill="#fff">
                <use xlink:href="#a"/>
            </mask>
            <path fill="#FFF" d="M20.094.25c8.784 0 16.299 3.741 19.145 8.955-3.274-.508-18.439-4.15-18.27-1.144v19.325a24.72 24.72 0 0 1-1.8-.001V8.061c.168-3.003-14.924.625-18.22 1.142C3.796 3.99 11.31.25 20.095.25" mask="url(#b)"/>
        </g>
    </g>
</svg>
