<svg xmlns="http://www.w3.org/2000/svg" width="32" height="30" viewBox="0 0 32 30">
    <g fill="#192431" fill-rule="nonzero">
        <path d="M32 6.312a.513.513 0 0 0-.057-.223.517.517 0 0 0-.087-.127c-.006-.007-.01-.015-.017-.022a.531.531 0 0 0-.125-.09L20.514.06a.539.539 0 0 0-.491-.002l-19.733 10a.529.529 0 0 0-.128.092c-.007.007-.012.016-.019.024a.52.52 0 0 0-.106.17.513.513 0 0 0-.037.18v13.16c0 .196.11.376.286.466l11.2 5.79c.023.01.046.019.07.026.014.005.028.012.042.016.044.011.09.018.135.018a.538.538 0 0 0 .223-.053c.007-.003.015-.002.021-.005l19.733-10c.178-.09.29-.271.29-.468V6.312zM11.2 28.604L1.067 23.366v-11.97L11.2 16.634v11.97zm.536-12.881L1.692 10.531l18.572-9.412 10.044 5.192-18.572 9.412zm19.197 3.43l-18.666 9.459V16.637l18.666-9.46v11.975z"/>
        <path d="M18.847 10.558a.459.459 0 0 0-.014-.048c-.008-.015-.021-.023-.03-.037a.571.571 0 0 0-.15-.151c-.014-.01-.022-.023-.037-.031l-6.44-3.507a.52.52 0 0 0-.048-.015.563.563 0 0 0-.308-.036.54.54 0 0 0-.103.028.502.502 0 0 0-.052.014l-6.65 3.323a.524.524 0 0 0-.294.466c0 .196.112.376.29.468l6.667 3.39c.156.08.341.08.497.003l6.424-3.208.007-.005a.531.531 0 0 0 .147-.114l.028-.037a.51.51 0 0 0 .043-.054.486.486 0 0 0 .016-.049.501.501 0 0 0 .007-.4zm-7.47 2.525l-4.94-2.513 4.94-2.469v4.982zm1.081.018V8.143l4.75 2.587-4.75 2.371zM27.27 6.006a.502.502 0 0 0-.03-.103.502.502 0 0 0-.014-.049c-.007-.015-.021-.023-.03-.037a.572.572 0 0 0-.15-.151c-.014-.01-.022-.023-.037-.03L20.57 2.127a.511.511 0 0 0-.049-.015.55.55 0 0 0-.41-.008.52.52 0 0 0-.052.014l-6.65 3.323a.524.524 0 0 0-.294.466c0 .197.111.377.29.468l6.667 3.392c.155.079.34.08.497.002l6.423-3.208.008-.006a.53.53 0 0 0 .146-.113c.011-.012.02-.025.03-.039a.496.496 0 0 0 .04-.053.486.486 0 0 0 .017-.047.505.505 0 0 0 .037-.298zm-7.5 2.422l-4.94-2.514 4.94-2.468v4.982zm1.082.018V3.487l4.75 2.587-4.75 2.372z"/>
    </g>
</svg>
