<svg xmlns="http://www.w3.org/2000/svg" width="13" height="12" viewBox="0 0 13 12">
    <path fill="#3287F0" fill-rule="nonzero" stroke="#3287F0" stroke-width=".4" d="M6.5 12L4.772 9.07h-2.16C1.722 9.07 1 8.427 1 7.638V2.43C1 1.641 1.723 1 2.612 1h7.777C11.277 1 12 1.642 12 2.431v5.208c0 .79-.723 1.43-1.611 1.43h-2.16L6.5 12zM2.612 1.793c-.442 0-.802.286-.802.638v5.208c0 .352.36.638.802.638h2.626L6.5 10.414l1.26-2.137h2.628c.443 0 .802-.287.802-.638V2.43c0-.352-.36-.638-.802-.638H2.612z"/>
</svg>
