<?xml version="1.0" encoding="UTF-8"?>
<svg width="18px" height="18px" viewBox="0 0 18 18" version="1.1" xmlns="http://www.w3.org/2000/svg" xmlns:xlink="http://www.w3.org/1999/xlink">
    <!-- Generator: sketchtool 49.1 (51147) - http://www.bohemiancoding.com/sketch -->
    <title>98680B04-6EF0-42F6-9931-2B761F182E9A</title>
    <desc>Created with sketchtool.</desc>
    <defs></defs>
    <g id="Enquiry-Placement" stroke="none" stroke-width="1" fill="none" fill-rule="evenodd">
        <g id="StyleGuide" transform="translate(-1149.000000, -980.000000)" fill="#1BB934">
            <path d="M1163.51,986.939 L1157.439,993.01 C1157.048,993.401 1156.415,993.401 1156.025,993.01 L1153.489,990.475 C1153.099,990.084 1153.099,989.451 1153.489,989.06 C1153.88,988.67 1154.513,988.67 1154.903,989.06 L1156.732,990.889 L1162.096,985.525 C1162.486,985.134 1163.119,985.134 1163.51,985.525 C1163.901,985.915 1163.901,986.548 1163.51,986.939 M1158,980 C1153.029,980 1149,984.029 1149,989 C1149,993.97 1153.029,998 1158,998 C1162.97,998 1167,993.97 1167,989 C1167,984.029 1162.97,980 1158,980" id="Check"></path>
        </g>
    </g>
</svg>