<svg xmlns="http://www.w3.org/2000/svg" width="11" height="11" viewBox="0 0 11 11">
    <path fill="#558CCC" fill-rule="nonzero" d="M7.558 3.932a.51.51 0 0 0-.147-.343.511.511 0 0 0-.344-.147.509.509 0 0 0-.385.147L5.5 4.77 4.318 3.589a.51.51 0 0 0-.385-.147.51.51 0 0 0-.344.147.511.511 0 0 0-.147.343.51.51 0 0 0 .147.386L4.771 5.5 3.589 6.682a.51.51 0 0 0-.147.385.51.51 0 0 0 .147.344.511.511 0 0 0 .344.147c.139.006.279-.04.385-.147L5.5 6.229l1.182 1.182a.51.51 0 0 0 .385.147.51.51 0 0 0 .344-.147.511.511 0 0 0 .147-.343.51.51 0 0 0-.147-.386L6.23 5.5l1.182-1.182a.51.51 0 0 0 .147-.386zM5.5 0a5.5 5.5 0 1 0 0 11 5.5 5.5 0 0 0 0-11zm0 9.969A4.474 4.474 0 0 1 1.031 5.5 4.474 4.474 0 0 1 5.5 1.031 4.474 4.474 0 0 1 9.969 5.5 4.474 4.474 0 0 1 5.5 9.969z"/>
</svg>
