<svg xmlns="http://www.w3.org/2000/svg" width="13" height="13" viewBox="0 0 13 13">
    <path fill="#558CCC" fill-rule="nonzero" stroke="#558CCC" stroke-width=".4" d="M4.678 5.085L3.343 6.423c-.492.493-.987.986-1.476 1.484a.92.92 0 0 0-.237.431c-.177.814-.348 1.628-.52 2.442l-.095.451c-.045.22.014.44.163.589.115.115.275.18.444.18a.824.824 0 0 0 .143-.014l.495-.104c.787-.166 1.577-.336 2.365-.499a.916.916 0 0 0 .47-.253c2.209-2.217 4.419-4.431 6.628-6.642A.934.934 0 0 0 12 3.89a.393.393 0 0 0-.008-.116c-.015-.056-.026-.115-.04-.172-.03-.143-.065-.307-.132-.464-.413-.947-1.1-1.623-2.038-2.003-.189-.076-.388-.102-.563-.124l-.047-.006c-.253-.03-.484.054-.684.257C7.222 2.536 5.95 3.812 4.678 5.085zm4.4-3.4h.014l.048.006c.146.017.28.034.388.079.764.31 1.327.861 1.667 1.639.04.09.065.206.09.327.008.045.02.09.028.135a.214.214 0 0 1-.07.121C9.03 6.203 6.82 8.42 4.61 10.634a.222.222 0 0 1-.121.065l-2.368.498-.416.088.08-.37c.17-.81.342-1.625.516-2.436a.246.246 0 0 1 .054-.093c.489-.496.978-.989 1.47-1.479L5.162 5.57c1.273-1.276 2.547-2.552 3.817-3.83.054-.045.08-.054.099-.054z"/>
</svg>
