<?xml version="1.0" encoding="UTF-8"?>
<svg width="23px" height="18px" viewBox="0 0 23 18" version="1.1" xmlns="http://www.w3.org/2000/svg" xmlns:xlink="http://www.w3.org/1999/xlink">
    <!-- Generator: Sketch 49.3 (51167) - http://www.bohemiancoding.com/sketch -->
    <title>table</title>
    <desc>Created with Sketch.</desc>
    <defs></defs>
    <g id="Page-1" stroke="none" stroke-width="1" fill="none" fill-rule="evenodd">
        <g id="SCV_2" transform="translate(-1249.000000, -231.000000)" fill="#C0C9CD" fill-rule="nonzero">
            <g id="table" transform="translate(1249.000000, 231.000000)">
                <path d="M0,0 L0,18 L23,18 L23,0 L0,0 Z M6.10204082,16.5898353 L1.40816327,16.5898353 L1.40816327,11.4192315 L6.10204082,11.4192315 L6.10204082,16.5898353 Z M6.10204082,10.0090668 L1.40816327,10.0090668 L1.40816327,4.83846302 L6.10204082,4.83846302 L6.10204082,10.0090668 Z M9.9744898,16.5898353 L7.51020408,16.5898353 L7.51020408,14.7096158 L9.9744898,14.7096158 L9.9744898,16.5898353 Z M9.9744898,13.2994511 L7.51020408,13.2994511 L7.51020408,11.4192315 L9.9744898,11.4192315 L9.9744898,13.2994511 Z M9.9744898,10.0090668 L7.51020408,10.0090668 L7.51020408,8.12884727 L9.9744898,8.12884727 L9.9744898,10.0090668 Z M9.9744898,6.71868259 L7.51020408,6.71868259 L7.51020408,4.83846302 L9.9744898,4.83846302 L9.9744898,6.71868259 Z M13.8469388,16.5898353 L11.3826531,16.5898353 L11.3826531,14.7096158 L13.8469388,14.7096158 L13.8469388,16.5898353 Z M13.8469388,13.2994511 L11.3826531,13.2994511 L11.3826531,11.4192315 L13.8469388,11.4192315 L13.8469388,13.2994511 Z M13.8469388,10.0090668 L11.3826531,10.0090668 L11.3826531,8.12884727 L13.8469388,8.12884727 L13.8469388,10.0090668 Z M13.8469388,6.71868259 L11.3826531,6.71868259 L11.3826531,4.83846302 L13.8469388,4.83846302 L13.8469388,6.71868259 Z M17.7193878,16.5898353 L15.255102,16.5898353 L15.255102,14.7096158 L17.7193878,14.7096158 L17.7193878,16.5898353 Z M17.7193878,13.2994511 L15.255102,13.2994511 L15.255102,11.4192315 L17.7193878,11.4192315 L17.7193878,13.2994511 Z M17.7193878,10.0090668 L15.255102,10.0090668 L15.255102,8.12884727 L17.7193878,8.12884727 L17.7193878,10.0090668 Z M17.7193878,6.71868259 L15.255102,6.71868259 L15.255102,4.83846302 L17.7193878,4.83846302 L17.7193878,6.71868259 Z M21.5918367,16.5898353 L19.127551,16.5898353 L19.127551,14.7096158 L21.5918367,14.7096158 L21.5918367,16.5898353 Z M21.5918367,13.2994511 L19.127551,13.2994511 L19.127551,11.4192315 L21.5918367,11.4192315 L21.5918367,13.2994511 Z M21.5918367,10.0090668 L19.127551,10.0090668 L19.127551,8.12884727 L21.5918367,8.12884727 L21.5918367,10.0090668 Z M21.5918367,6.71868259 L19.127551,6.71868259 L19.127551,4.83846302 L21.5918367,4.83846302 L21.5918367,6.71868259 Z M21.5918367,3.42829835 L1.40816327,3.42829835 L1.40816327,1.41016468 L21.5918367,1.41016468 L21.5918367,3.42829835 Z" id="Shape"></path>
            </g>
        </g>
    </g>
</svg>