<svg xmlns="http://www.w3.org/2000/svg" width="17" height="22" viewBox="0 0 17 22">
    <g fill="none" fill-rule="evenodd" stroke="#899DB5" stroke-width=".4">
        <path fill="#899DB5" d="M2.247 1.864a.425.425 0 0 0-.416.431v17.27c0 .238.187.432.416.432h13.3a.425.425 0 0 0 .417-.432V6.792l-4.745-4.928H2.247zm13.3 18.997h-13.3C1.559 20.86 1 20.279 1 19.565V2.295C1 1.581 1.56 1 2.247 1h9.144c.11 0 .217.045.294.127l4.988 5.18a.44.44 0 0 1 .122.306v12.952c0 .714-.56 1.296-1.247 1.296z"/>
        <path fill="#899DB5" d="M16.38 7.045H11.39a.424.424 0 0 1-.415-.432v-4.75h.831v4.318h4.572v.864zM9.404 7.864H4.416A.424.424 0 0 1 4 7.432C4 7.193 4.186 7 4.416 7h4.988c.229 0 .415.193.415.432a.424.424 0 0 1-.415.432M14.391 11.864H4.416A.424.424 0 0 1 4 11.432c0-.239.186-.432.416-.432h9.975c.23 0 .416.193.416.432a.424.424 0 0 1-.416.432"/>
        <path fill="#FFF" d="M14.391 15.864H4.416A.424.424 0 0 1 4 15.432c0-.239.186-.432.416-.432h9.975c.23 0 .416.193.416.432a.424.424 0 0 1-.416.432"/>
    </g>
</svg>
