<svg xmlns="http://www.w3.org/2000/svg" width="23" height="35" viewBox="0 0 23 35">
    <g fill="#192431" fill-rule="nonzero">
        <path d="M21.275 2.333h-6.9l1.035-1.4a.588.588 0 0 0-.115-.816.57.57 0 0 0-.804.116l-1.553 2.1H10.13L9.14.322a.572.572 0 0 0-.772-.26.587.587 0 0 0-.257.782l.735 1.489h-7.12C.774 2.333 0 3.118 0 4.083V33.25C0 34.215.774 35 1.725 35h19.55c.951 0 1.725-.785 1.725-1.75V4.083c0-.965-.774-1.75-1.725-1.75zM1.725 3.499H9.42l.575 1.167a2.332 2.332 0 0 0-.795 1.75c0 1.287 1.032 2.334 2.3 2.334 1.268 0 2.3-1.047 2.3-2.334 0-1.287-1.032-2.333-2.3-2.333-.165 0-.325.02-.48.053l-.315-.637h10.57a.58.58 0 0 1 .575.584v19.25h-4.685a2.473 2.473 0 0 0-1.27-1.605L13.8 20.643v-.226c.936-.519 1.594-1.373 1.962-2.546.557-.3.913-.883.913-1.538v-.583c0-.54-.248-1.042-.662-1.37-.359-2.206-1.875-3.323-4.513-3.323-.125 0-.247.004-.366.014-.496.039-1.224-.002-1.854-.432a2.367 2.367 0 0 1-.526-.463.678.678 0 0 0-.806-.217.694.694 0 0 0-.422.727c.024.218.06.472.115.75.111.57.111.57-.045.91-.058.128-.13.285-.216.497a6.59 6.59 0 0 0-.403 1.544 1.75 1.75 0 0 0-.652 1.363v.583c0 .655.356 1.238.913 1.538.368 1.174 1.026 2.028 1.962 2.546v.22L7.033 21.72a2.486 2.486 0 0 0-1.212 1.613H1.15V4.083a.58.58 0 0 1 .575-.584zm8.816 2.276l.444.902a.575.575 0 0 0 .772.261.587.587 0 0 0 .257-.783l-.443-.898c.6.038 1.079.54 1.079 1.16a1.16 1.16 0 0 1-1.15 1.166 1.16 1.16 0 0 1-1.15-1.167c0-.237.07-.457.19-.64zm-.76 15.872c.346-.172.569-.535.569-.927V19.67l-.347-.152c-.873-.382-1.44-1.109-1.734-2.225l-.082-.31-.303-.097a.586.586 0 0 1-.409-.552v-.583c0-.212.119-.408.311-.511l.27-.146.031-.309a5.543 5.543 0 0 1 .358-1.499c.076-.19.141-.331.194-.447.195-.425.266-.644.217-1.094.676.392 1.489.558 2.37.49.09-.007.18-.01.275-.01 2.152 0 3.203.79 3.409 2.565l.035.304.268.144c.192.104.312.3.312.513v.583c0 .25-.168.477-.41.552l-.302.096-.082.311c-.294 1.116-.861 1.843-1.734 2.225l-.347.152v1.057c0 .39.213.742.554.918l2.17 1.126c.249.126.445.325.57.564H7.03c.115-.245.3-.45.533-.577l2.219-1.11zm11.494 12.186H1.725a.58.58 0 0 1-.575-.583V24.5h20.7v8.75a.58.58 0 0 1-.575.583z"/>
        <path d="M16.675 29.167H6.325c-.318 0-.575.186-.575.416 0 .23.257.417.575.417h10.35c.318 0 .575-.186.575-.417 0-.23-.257-.416-.575-.416zM8.83 27.5h6.161c.34 0 .616-.186.616-.417 0-.23-.275-.416-.616-.416h-6.16c-.341 0-.617.186-.617.416 0 .23.276.417.616.417zM6.845 30.833h-.547c-.303 0-.548.187-.548.417 0 .23.245.417.548.417h.547c.303 0 .548-.187.548-.417 0-.23-.245-.417-.548-.417zM10.268 30.833h-.822a.413.413 0 0 0-.41.417c0 .23.183.417.41.417h.822c.227 0 .41-.187.41-.417a.413.413 0 0 0-.41-.417zM13.417 30.833h-.548c-.303 0-.548.187-.548.417 0 .23.245.417.548.417h.548c.303 0 .547-.187.547-.417 0-.23-.245-.417-.547-.417zM16.634 30.833h-1.232c-.34 0-.616.187-.616.417 0 .23.275.417.616.417h1.232c.34 0 .616-.187.616-.417 0-.23-.275-.417-.616-.417z"/>
    </g>
</svg>
