<svg xmlns="http://www.w3.org/2000/svg" width="31" height="39" viewBox="0 0 31 39">
    <g fill="#558CCC" fill-rule="nonzero" stroke="#F7F7F7">
        <path stroke-width=".8" d="M9.538 16.18c0-.522-.383-.95-.852-.95H1.852c-.468 0-.852.428-.852.95 0 .521.384.948.852.948h6.834c.469 0 .852-.427.852-.949zM29.558 15.23h-6.834c-.469 0-.852.428-.852.95 0 .521.383.948.852.948h6.834c.469 0 .852-.427.852-.949 0-.521-.376-.948-.852-.948zM16.18 9.538c.521 0 .948-.383.948-.852V1.852c0-.468-.427-.852-.949-.852-.521 0-.948.384-.948.852v6.834c0 .469.427.852.948.852zM20.965 12.385c.255 0 .502-.1.7-.289l5.609-5.61a.99.99 0 1 0-1.4-1.4l-5.61 5.61a.99.99 0 0 0 0 1.4c.198.19.454.289.7.289zM10.694 12.096a.991.991 0 0 0 1.4-1.4l-5.609-5.61a.989.989 0 1 0-1.4 1.4l5.61 5.61z"/>
        <path stroke-width=".3" d="M27.129 21.673a3.86 3.86 0 0 0-2.501-.935h-5.319v-3.75c0-1.793-.535-3.1-1.596-3.88-1.672-1.221-3.94-.533-4.041-.503a.928.928 0 0 0-.65.882v4.522c0 1.376-.659 2.543-1.968 3.479a7.93 7.93 0 0 1-2.137 1.074l-.093.023a1.902 1.902 0 0 0-1.432-.641h-3.53a1.915 1.915 0 0 0-1.913 1.91v11.564c0 1.051.86 1.91 1.912 1.91h3.547c.464 0 .898-.17 1.223-.449A3.903 3.903 0 0 0 11.356 38h11.097c1.114 0 2.097-.27 2.849-.773.96-.65 1.556-1.678 1.726-2.992l1.433-8.89a3.995 3.995 0 0 0-1.332-3.672zM7.462 35.418c0 .031-.024.054-.054.054H3.86a.053.053 0 0 1-.054-.054V23.853c0-.03.023-.054.054-.054h3.547c.03 0 .054.023.054.054v11.565zm19.164-10.359l-1.433 8.906c0 .007 0 .023-.008.038-.062.534-.263 2.15-2.733 2.15H11.356a2.057 2.057 0 0 1-2.013-1.724 2.511 2.511 0 0 0-.023-.109V24.38l.054-.016c.016 0 .023-.007.039-.007.054-.016 1.37-.387 2.679-1.322 1.82-1.291 2.787-3.03 2.787-5.025v-3.757c.512-.054 1.216-.03 1.735.348.557.41.836 1.214.836 2.38v4.678c0 .51.418.927.93.927h6.248c.464 0 .921.178 1.293.487.557.48.82 1.237.705 1.987z"/>
    </g>
</svg>
