<?xml version="1.0" encoding="UTF-8"?>
<svg width="18px" height="18px" viewBox="0 0 18 18" version="1.1" xmlns="http://www.w3.org/2000/svg" xmlns:xlink="http://www.w3.org/1999/xlink">
    <!-- Generator: sketchtool 49.1 (51147) - http://www.bohemiancoding.com/sketch -->
    <title>66751593-3622-416D-B3AB-938AD7E61B6D</title>
    <desc>Created with sketchtool.</desc>
    <defs></defs>
    <g id="Enquiry-Placement" stroke="none" stroke-width="1" fill="none" fill-rule="evenodd">
        <g id="StyleGuide" transform="translate(-580.000000, -980.000000)" fill="#FFF">
            <path d="M592.7,992.696 C592.313,993.083 591.684,993.083 591.297,992.696 L588.989,990.388 L586.676,992.7 C586.289,993.088 585.66,993.088 585.273,992.7 C584.885,992.313 584.885,991.685 585.273,991.297 L587.585,988.984 L585.273,986.672 C584.885,986.284 584.885,985.656 585.273,985.269 C585.66,984.881 586.289,984.881 586.676,985.269 L588.989,987.581 L591.297,985.273 C591.684,984.885 592.312,984.885 592.7,985.273 C593.087,985.661 593.087,986.289 592.7,986.676 L590.392,988.985 L592.7,991.293 C593.088,991.68 593.088,992.309 592.7,992.696 M589,980 C584.029,980 580,984.029 580,989 C580,993.971 584.029,998 589,998 C593.97,998 598,993.971 598,989 C598,984.029 593.97,980 589,980" id="Cross"></path>
        </g>
    </g>
</svg>