<svg xmlns="http://www.w3.org/2000/svg" xmlns:xlink="http://www.w3.org/1999/xlink" width="43" height="39" viewBox="0 0 43 39">
    <defs>
        <path id="a" d="M.756.2H31.23v21.609H.756z"/>
    </defs>
    <g fill="none" fill-rule="evenodd">
        <path fill="#558CCC" d="M0 27.981v3.172h3.076v7.635H7.48v-7.635h2.985V27.98zM20.883 27.981v3.172h3.075v7.635h4.406v-7.635h2.984V27.98zM13.423 27.994L9.467 38.801h4.055l2.178-6.534 2.188 6.534h4.245l-4.205-10.808zM34.294 27.993L30.34 38.797h4.054l2.229-6.53 2.138 6.53h4.244l-4.253-10.804zM16.211 21.938C9.833 20.484 5.227 16.445 5.227 11.712c0-.593.073-1.172.211-1.738 3.108-.845 11.263-2.1 12.755-1.11.98.576-.929 8.34-1.982 13.074M37.43 9.971c.14.567.212 1.149.212 1.74 0 4.743-4.626 8.79-11.024 10.237-1.053-4.737-2.96-12.508-1.98-13.085 1.49-.988 9.679.264 12.792 1.108"/>
        <g transform="translate(5.442 .708)">
            <mask id="b" fill="#fff">
                <use xlink:href="#a"/>
            </mask>
            <path fill="#558CCC" d="M15.993.2c6.992 0 12.972 2.977 15.238 7.126-2.606-.404-14.676-3.303-14.541-.91v15.381a19.675 19.675 0 0 1-1.433 0V6.415c.134-2.39-11.878.498-14.501.908C3.02 3.176 9.002.2 15.993.2" mask="url(#b)"/>
        </g>
    </g>
</svg>
