<svg xmlns="http://www.w3.org/2000/svg" width="34" height="34" viewBox="0 0 34 34">
    <g fill="#192431" fill-rule="nonzero">
        <path d="M30.71 6.032h-7.677V.55a.548.548 0 0 0-.936-.389l-.78.78-1.27-.848a.548.548 0 0 0-.609 0l-1.34.894-1.342-.894a.548.548 0 0 0-.608 0l-1.34.894-1.341-.894a.548.548 0 0 0-.608 0l-1.342.894-1.34-.894a.548.548 0 0 0-.609 0l-1.34.894-1.34-.894a.548.548 0 0 0-.609 0L4.94.986 3.596.092a.548.548 0 0 0-.608 0L1.715.94.936.16A.55.55 0 0 0 0 .55v30.16A3.294 3.294 0 0 0 3.29 34h21.936a3.294 3.294 0 0 0 3.29-3.29v-8.984l1.4.7a.546.546 0 0 0 .55-.034l1.341-.894 1.34.894a.546.546 0 0 0 .853-.456V9.323a3.293 3.293 0 0 0-3.29-3.29zM3.29 32.902v.001a2.196 2.196 0 0 1-2.193-2.193V1.872l.16.161a.55.55 0 0 0 .693.069l1.34-.894 1.341.894a.548.548 0 0 0 .608 0l1.341-.894 1.34.894a.548.548 0 0 0 .609 0l1.34-.894 1.341.894a.548.548 0 0 0 .608 0l1.342-.894 1.34.894a.548.548 0 0 0 .609 0l1.34-.894 1.342.894a.548.548 0 0 0 .608 0l1.34-.894 1.34.894a.55.55 0 0 0 .693-.068l.161-.162V30.71c0 .199.02.392.055.582.003.015.004.032.008.048.035.18.086.353.15.521l.024.068c.065.162.143.317.232.465l.042.07c.092.144.194.28.306.408.008.01.014.021.023.03H3.29zM28.236 7.16a3.328 3.328 0 0 0-.58.943l-.024.068a3.247 3.247 0 0 0-.15.52l-.007.05c-.034.188-.055.383-.055.581V30.71c0 1.21-.984 2.193-2.194 2.193a2.196 2.196 0 0 1-2.193-2.193V7.13h5.226c-.008.008-.014.02-.023.03zm4.668 13.75l-.793-.527a.548.548 0 0 0-.608 0l-1.38.92-1.606-.803V9.323c0-1.21.983-2.194 2.193-2.194s2.194.984 2.194 2.194V20.91z"/>
        <path d="M11.705 3.344a3.906 3.906 0 0 0-3.902 3.902 3.906 3.906 0 0 0 3.902 3.902c2.15 0 3.902-1.75 3.902-3.902a3.906 3.906 0 0 0-3.902-3.902zm0 6.689a2.79 2.79 0 0 1-2.787-2.787 2.79 2.79 0 0 1 2.787-2.787 2.79 2.79 0 0 1 2.787 2.787 2.79 2.79 0 0 1-2.787 2.787zM7.803 12.262h8.361v1.115H7.803zM6.689 14.492h10.59v1.115H6.689zM3.344 17.836h10.033v1.115H3.344zM17.279 17.836h2.23v1.115h-2.23zM3.344 20.623h10.033v1.115H3.344zM17.279 20.623h2.23v1.115h-2.23zM3.344 23.41h10.033v1.115H3.344zM17.279 23.41h2.23v1.115h-2.23zM3.344 26.197h10.033v1.115H3.344zM17.279 26.197h2.23v1.115h-2.23zM3.344 28.984h10.033v1.115H3.344zM17.279 28.984h2.23v1.115h-2.23z"/>
    </g>
</svg>
