<svg xmlns="http://www.w3.org/2000/svg" width="13" height="11" viewBox="0 0 13 11">
    <path fill="#558CCC" fill-rule="nonzero" d="M12.16 4.314c.7 1.232.781 2.654.781 3.617a.478.478 0 0 1-.467.48.469.469 0 0 1-.408-.242c-1.011-1.831-1.977-2.259-2.788-2.435a.48.48 0 0 1-.361-.57.467.467 0 0 1 .553-.371c.928.203 1.7.655 2.383 1.419-.338-1.673-1.388-3.266-4.43-3.424a.476.476 0 0 1-.444-.481v-.89l-3.12 2.296 3.12 2.304v-.893c0-.264.21-.481.467-.481.258 0 .468.217.468.481v1.828c0 .18-.099.345-.255.428a.457.457 0 0 1-.485-.037L2.784 4.1a.486.486 0 0 1 0-.78L7.173.091a.452.452 0 0 1 .485-.037.49.49 0 0 1 .258.427v1.374c2.003.2 3.429 1.027 4.242 2.46zM9.22 6.448a.48.48 0 0 1 .486.47v3.612a.48.48 0 0 1-.486.47H.485A.48.48 0 0 1 0 10.53V3.705a.48.48 0 0 1 .485-.47h.68a.48.48 0 0 1 .485.47.48.48 0 0 1-.485.47H.971v5.885h7.764V6.918a.48.48 0 0 1 .485-.47z"/>
</svg>
