<svg xmlns="http://www.w3.org/2000/svg" width="20" height="20" viewBox="0 0 20 20">
    <path fill="#899DB5" fill-rule="nonzero" d="M19.705 14.293C17.353 11.94 16.999 10.759 16.999 7A7 7 0 1 0 3 7c0 2.027-.054 2.784-.333 3.713-.347 1.157-1.059 2.265-2.373 3.58-.63.63-.184 1.707.707 1.707H6.55l-.05.5a3.5 3.5 0 1 0 6.998 0l-.05-.5h5.549c.891 0 1.337-1.077.707-1.707zM10 19a2.5 2.5 0 0 1-2.5-2.5l.051-.5h4.898l.051.5A2.5 2.5 0 0 1 10 19zm-8.998-4c3-3 3-5 3-8a6 6 0 1 1 11.997 0c0 3 0 5 3 8H1.001z"/>
</svg>
