<?xml version="1.0" encoding="UTF-8"?>
<svg width="17px" height="14px" viewBox="0 0 17 14" version="1.1" xmlns="http://www.w3.org/2000/svg" xmlns:xlink="http://www.w3.org/1999/xlink">
    <!-- Generator: sketchtool 50 (54983) - http://www.bohemiancoding.com/sketch -->
    <title>C0C557C6-D6D9-4ADB-98B8-EAB733AD96E9</title>
    <desc>Created with sketchtool.</desc>
    <defs></defs>
    <g id="Page-4" stroke="none" stroke-width="1" fill="none" fill-rule="evenodd">
        <g id="SM_6_View-Indent" transform="translate(-58.000000, -462.000000)" fill="#3287F0" fill-rule="nonzero" stroke="#3287F0" stroke-width="0.6">
            <g id="Group-10" transform="translate(59.000000, 457.000000)">
                <path d="M7.01507321,18.2977516 C7.06330749,18.3466492 7.12360034,18.3833224 7.1838932,18.4077712 C7.1838932,18.4077712 7.1838932,18.4077712 7.19595177,18.4077712 C7.25624462,18.43222 7.31653747,18.4444444 7.38888889,18.4444444 C7.46124031,18.4444444 7.52153316,18.43222 7.58182601,18.4077712 C7.58182601,18.4077712 7.58182601,18.4077712 7.59388458,18.4077712 C7.65417743,18.3833224 7.71447028,18.3466492 7.76270457,18.2977516 L14.624031,11.3420651 C14.8290267,11.1342502 14.8290267,10.8041912 14.624031,10.5963763 C14.4190353,10.3885614 14.0934539,10.3885614 13.8884582,10.5963763 L7.89534884,16.6474569 L7.89534884,6.52564942 C7.89534884,6.2322637 7.666236,6 7.37683032,6 C7.08742463,6 6.8583118,6.2322637 6.8583118,6.52564942 L6.8583118,16.6596813 L0.889319552,10.5963763 C0.684323859,10.3885614 0.358742463,10.3885614 0.15374677,10.5963763 C-0.0512489233,10.8041912 -0.0512489233,11.1342502 0.15374677,11.3420651 L7.01507321,18.2977516 Z" id="Shape"></path>
            </g>
        </g>
    </g>
</svg>