<svg xmlns="http://www.w3.org/2000/svg" width="11" height="11" viewBox="0 0 11 11">
    <g fill="#558CCC" fill-rule="nonzero">
        <path d="M10.201 1.898a.23.23 0 0 0-.168-.065H7.78L7.27.637a.997.997 0 0 0-.394-.45A1.043 1.043 0 0 0 6.3 0H3.967c-.195 0-.387.062-.576.186a.997.997 0 0 0-.394.451l-.51 1.196H.232a.221.221 0 0 0-.233.23v.458a.22.22 0 0 0 .066.164.23.23 0 0 0 .167.065h.7v6.818c0 .396.114.734.343 1.013.228.28.503.419.824.419h6.067c.32 0 .595-.144.824-.433.228-.29.342-.632.342-1.028V2.75h.7a.221.221 0 0 0 .233-.23v-.457a.221.221 0 0 0-.065-.164zM3.857.995a.206.206 0 0 1 .124-.078h2.312c.048.01.09.035.124.078l.35.838H3.5l.357-.838zM8.4 9.54a.799.799 0 0 1-.157.483c-.036.041-.062.061-.076.061H2.1c-.015 0-.04-.02-.077-.06a.801.801 0 0 1-.157-.483V2.75H8.4v6.79z"/>
        <path d="M3.963 8.8h.366c.054 0 .098-.02.132-.062a.24.24 0 0 0 .052-.158V4.62a.24.24 0 0 0-.052-.158.164.164 0 0 0-.132-.062h-.366a.164.164 0 0 0-.132.062.239.239 0 0 0-.052.158v3.96c0 .064.018.117.052.158a.164.164 0 0 0 .132.062zM5.937 8.8h.367c.053 0 .097-.02.132-.062a.239.239 0 0 0 .051-.158V4.62a.239.239 0 0 0-.051-.158.164.164 0 0 0-.132-.062h-.367a.164.164 0 0 0-.132.062.239.239 0 0 0-.051.158v3.96c0 .064.017.117.051.158a.164.164 0 0 0 .132.062z"/>
    </g>
</svg>
